<?xml version="1.0" encoding="UTF-8"?>
<svg id="Capa_1" xmlns="http://www.w3.org/2000/svg" version="1.1" viewBox="0 0 24 24">
  <!-- Generator: Adobe Illustrator 30.7.0, SVG Export Plug-In . SVG Version: 2.1.4 Build 114)  -->
  <defs>
    <style>
      .st0 {
        fill: none;
        stroke: #6366f1;
        stroke-linecap: round;
        stroke-linejoin: round;
        stroke-width: 2px;
      }
    </style>
  </defs>
  <path class="st0" d="M22.29,10.82c.56-.24.8-.89.56-1.44-.11-.25-.32-.46-.58-.57l-9.37-4.27c-.58-.26-1.24-.26-1.82,0L1.71,8.81c-.56.24-.8.89-.56,1.44.11.25.31.45.56.56l9.37,4.28c.58.26,1.24.26,1.82,0,0,0,9.4-4.27,9.4-4.27Z"/>
  <path class="st0" d="M22.93,9.81v6.56"/>
  <path class="st0" d="M5.43,12.54v3.83c0,1.82,2.94,3.29,6.56,3.29s6.56-1.47,6.56-3.29v-3.83"/>
</svg>